<!DOCTYPE svg PUBLIC "-//W3C//DTD SVG 1.1//EN" "http://www.w3.org/Graphics/SVG/1.1/DTD/svg11.dtd">
<!-- Uploaded to: SVG Repo, www.svgrepo.com, Transformed by: SVG Repo Mixer Tools -->
<svg fill="#ffffff" height="800px" width="800px" version="1.1" id="Layer_1" xmlns="http://www.w3.org/2000/svg" xmlns:xlink="http://www.w3.org/1999/xlink" viewBox="0 0 512 512" xml:space="preserve">
<g id="SVGRepo_bgCarrier" stroke-width="0"/>
<g id="SVGRepo_tracerCarrier" stroke-linecap="round" stroke-linejoin="round"/>
<g id="SVGRepo_iconCarrier"> <g> <g> <path d="M492.684,143.303H354.211v-48.67c0-10.668-8.648-19.316-19.316-19.316H177.105c-10.668,0-19.316,8.648-19.316,19.316 V196.38H19.316C8.648,196.38,0,205.029,0,215.696v201.67c0,10.668,8.648,19.316,19.316,19.316c9.162,0,464.808,0,473.368,0 c10.668,0,19.316-8.648,19.316-19.316V162.62C512,151.952,503.352,143.303,492.684,143.303z M98.211,320.531 c-13.381,0-24.229-10.848-24.229-24.229s10.848-24.229,24.229-24.229c13.381,0,24.229,10.848,24.229,24.229 C122.44,309.685,111.592,320.531,98.211,320.531z M256,199.468c-13.381,0-24.229-10.848-24.229-24.229 c0-13.381,10.848-24.229,24.229-24.229s24.229,10.848,24.229,24.229C280.229,188.62,269.381,199.468,256,199.468z M413.789,267.454c-13.381,0-24.229-10.848-24.229-24.229c0-13.381,10.848-24.229,24.229-24.229s24.229,10.848,24.229,24.229 C438.018,256.607,427.17,267.454,413.789,267.454z"/> </g> </g> </g>
</svg>