<svg width="23" height="21" viewBox="0 0 23 21" fill="none" xmlns="http://www.w3.org/2000/svg">
<path fill-rule="evenodd" clip-rule="evenodd" d="M21.0157 10.8719C21.0157 14.3016 19.4041 17.474 16.686 19.5801C16.3375 19.8501 16.2817 20.3417 16.5614 20.6782C16.841 21.0147 17.3502 21.0685 17.6987 20.7985C20.7955 18.399 22.6338 14.7805 22.6338 10.8719C22.6338 6.9733 20.8049 3.36297 17.7216 0.963026C17.3738 0.692267 16.8644 0.745045 16.584 1.08091C16.3036 1.41677 16.3582 1.90854 16.7061 2.17929C19.4124 4.28575 21.0157 7.45094 21.0157 10.8719ZM1.93225 10.8719C1.93225 14.3016 3.54385 17.4741 6.26195 19.5801C6.61043 19.8501 6.66622 20.3418 6.38657 20.6783C6.10691 21.0147 5.59771 21.0686 5.24923 20.7986C2.15242 18.3991 0.314178 14.7805 0.314178 10.8719C0.314178 6.97335 2.14298 3.36301 5.22632 0.963069C5.57418 0.69231 6.08351 0.745088 6.36393 1.08095C6.64436 1.41681 6.5897 1.90858 6.24184 2.17934C3.53557 4.28579 1.93225 7.45099 1.93225 10.8719ZM8.87369 16.2456C7.23002 14.9538 6.25817 13.0234 6.25817 10.9378C6.25817 8.85211 7.23002 6.92173 8.87369 5.62989C9.19072 5.38072 9.23852 4.93059 8.98045 4.6245C8.72238 4.3184 8.25618 4.27225 7.93915 4.52142C5.95372 6.08185 4.77783 8.41753 4.77783 10.9378C4.77783 13.458 5.95372 15.7937 7.93915 17.3541C8.25618 17.6033 8.72238 17.5571 8.98045 17.251C9.23852 16.9449 9.19072 16.4948 8.87369 16.2456ZM11.4733 12.6797C12.4946 12.6797 13.3225 11.8803 13.3225 10.8942C13.3225 9.90812 12.4946 9.10875 11.4733 9.10875C10.452 9.10875 9.62408 9.90812 9.62408 10.8942C9.62408 11.8803 10.452 12.6797 11.4733 12.6797ZM13.978 16.2456C15.6217 14.9538 16.5935 13.0234 16.5935 10.9378C16.5935 8.85211 15.6217 6.92173 13.978 5.62989C13.661 5.38072 13.6132 4.93059 13.8713 4.6245C14.1293 4.3184 14.5955 4.27225 14.9126 4.52142C16.898 6.08185 18.0739 8.41753 18.0739 10.9378C18.0739 13.458 16.898 15.7937 14.9126 17.3541C14.5955 17.6033 14.1293 17.5571 13.8713 17.251C13.6132 16.9449 13.661 16.4948 13.978 16.2456Z" fill="white"/>
</svg>
