<svg width="11" height="11" viewBox="0 0 11 11" fill="none" xmlns="http://www.w3.org/2000/svg">
<path d="M5.54545 8.81019C4.64992 8.81019 3.79105 8.45444 3.15781 7.8212C2.52457 7.18796 2.16882 6.32911 2.16882 5.43357C2.16882 4.53804 2.52457 3.67918 3.15781 3.04594C3.79105 2.4127 4.64992 2.05695 5.54545 2.05695C6.44099 2.05695 7.29984 2.4127 7.93308 3.04594C8.56632 3.67918 8.92207 4.53804 8.92207 5.43357C8.92207 6.32911 8.56632 7.18796 7.93308 7.8212C7.29984 8.45444 6.44099 8.81019 5.54545 8.81019ZM5.54545 10.1608C6.7992 10.1608 8.0016 9.66279 8.88813 8.77626C9.77467 7.88972 10.2727 6.68732 10.2727 5.43357C10.2727 4.17982 9.77467 2.97742 8.88813 2.09089C8.0016 1.20435 6.7992 0.706299 5.54545 0.706299C4.2917 0.706299 3.0893 1.20435 2.20276 2.09089C1.31623 2.97742 0.818176 4.17982 0.818176 5.43357C0.818176 6.68732 1.31623 7.88972 2.20276 8.77626C3.0893 9.66279 4.2917 10.1608 5.54545 10.1608Z" fill="#191414"/>
</svg>
