<svg width="22" height="17" viewBox="0 0 22 17" fill="none" xmlns="http://www.w3.org/2000/svg">
<path d="M19.7727 13.4034C19.7727 13.757 19.6338 14.0962 19.3866 14.3462C19.1394 14.5963 18.8041 14.7367 18.4545 14.7367H2.63636C2.28676 14.7367 1.95148 14.5963 1.70427 14.3462C1.45706 14.0962 1.31818 13.757 1.31818 13.4034V5.4034C1.31818 5.04978 1.45706 4.71064 1.70427 4.46059C1.95148 4.21054 2.28676 4.07007 2.63636 4.07007H4.18127C5.22954 4.06949 6.23469 3.64794 6.97582 2.89807L8.06991 1.79407C8.31641 1.54465 8.65057 1.40418 8.99923 1.4034H12.089C12.4386 1.40348 12.7739 1.544 13.021 1.79407L14.1125 2.89807C14.4797 3.26969 14.9158 3.56447 15.3958 3.76556C15.8757 3.96666 16.3901 4.07013 16.9096 4.07007H18.4545C18.8041 4.07007 19.1394 4.21054 19.3866 4.46059C19.6338 4.71064 19.7727 5.04978 19.7727 5.4034V13.4034ZM2.63636 2.73674C1.93716 2.73674 1.26659 3.01769 0.772173 3.51778C0.277759 4.01788 0 4.69616 0 5.4034L0 13.4034C0 14.1106 0.277759 14.7889 0.772173 15.289C1.26659 15.7891 1.93716 16.0701 2.63636 16.0701H18.4545C19.1538 16.0701 19.8243 15.7891 20.3187 15.289C20.8132 14.7889 21.0909 14.1106 21.0909 13.4034V5.4034C21.0909 4.69616 20.8132 4.01788 20.3187 3.51778C19.8243 3.01769 19.1538 2.73674 18.4545 2.73674H16.9096C16.2105 2.73658 15.54 2.45553 15.0457 1.9554L13.9543 0.851402C13.46 0.35127 12.7895 0.0702194 12.0904 0.0700684H9.00055C8.3014 0.0702194 7.63094 0.35127 7.13664 0.851402L6.04518 1.9554C5.55088 2.45553 4.88042 2.73658 4.18127 2.73674H2.63636Z" fill="white"/>
</svg>
